<?xml version="1.0" standalone="no"?>
<!DOCTYPE svg PUBLIC "-//W3C//DTD SVG 20010904//EN"
 "http://www.w3.org/TR/2001/REC-SVG-20010904/DTD/svg10.dtd">
<svg version="1.0" xmlns="http://www.w3.org/2000/svg"
 width="256.000000pt" height="256.000000pt" viewBox="0 0 256.000000 256.000000"
 preserveAspectRatio="xMidYMid meet">
<metadata>
Created by potrace 1.11, written by Peter Selinger 2001-2013
</metadata>
<g transform="translate(0.000000,256.000000) scale(0.100000,-0.100000)"
fill="#000000" stroke="none">
<path d="M1158 2445 c-2 -2 -25 -6 -53 -9 -402 -53 -778 -360 -924 -756 -85
-230 -91 -510 -15 -753 121 -387 463 -701 859 -787 100 -22 132 -25 275 -24
123 1 161 5 251 28 375 94 672 351 812 701 62 155 81 257 81 435 1 148 -11
226 -51 355 -130 413 -490 723 -928 799 -66 11 -298 19 -307 11z m257 -107 c6
-6 -76 -250 -110 -326 -8 -18 -15 -40 -15 -49 0 -9 -3 -14 -6 -11 -5 6 -142
353 -147 372 -1 6 12 13 28 17 38 8 241 6 250 -3z m-354 -94 l26 -69 -91 -30
c-553 -182 -798 -832 -501 -1325 25 -41 50 -82 56 -91 9 -12 3 -31 -28 -91
l-39 -76 -49 64 c-300 383 -296 941 9 1324 84 105 233 224 363 289 69 34 203
82 218 77 5 -1 21 -34 36 -72z m555 51 c41 -14 103 -39 137 -56 62 -32 194
-116 203 -130 2 -4 -8 -14 -23 -21 -16 -8 -48 -26 -73 -40 l-45 -26 -81 47
c-61 35 -206 94 -261 106 -1 0 9 32 23 70 13 39 24 71 24 73 0 6 28 0 96 -23z
m-437 -355 c30 -77 60 -149 68 -160 16 -23 55 -26 71 -7 6 7 34 76 62 153 28
76 54 142 59 146 10 11 154 -37 224 -74 51 -27 55 -32 40 -43 -17 -11 -125
-75 -519 -309 l-181 -107 -194 -364 -194 -364 -33 52 c-34 54 -85 180 -95 235
l-6 32 70 0 c110 0 109 -1 109 145 0 149 -2 151 -109 150 -39 0 -71 1 -71 3 0
21 37 139 60 188 72 159 213 307 370 389 36 19 187 74 205 75 6 0 35 -63 64
-140z m953 -13 c150 -199 228 -451 215 -697 -20 -391 -243 -731 -594 -909 -58
-29 -200 -81 -221 -81 -9 0 -66 140 -60 145 2 1 37 12 78 25 314 94 560 367
625 695 14 70 15 300 1 358 -28 120 -113 308 -160 355 -11 11 -6 26 25 85 21
39 35 75 33 79 -3 4 -2 8 3 8 4 0 29 -29 55 -63z m-172 45 c0 -5 -26 -58 -58
-118 -33 -60 -82 -152 -109 -204 -28 -52 -70 -131 -93 -175 -117 -219 -182
-340 -186 -344 -2 -2 -26 16 -52 42 l-49 45 45 49 c45 48 70 94 67 123 -1 8
-3 23 -3 32 -3 29 -52 77 -92 89 -55 17 -85 5 -150 -57 l-58 -55 -47 46 c-26
25 -46 47 -43 50 5 5 372 225 433 260 22 12 96 56 165 98 218 130 230 137 230
119z m61 -362 c34 -80 61 -171 54 -179 -3 -2 -34 -5 -69 -6 -94 -2 -96 -5 -96
-149 0 -82 4 -126 12 -134 7 -7 41 -12 84 -12 l73 0 -5 -27 c-25 -134 -126
-312 -238 -416 -56 -51 -162 -122 -229 -152 -49 -21 -168 -58 -173 -52 -1 1
-26 69 -55 151 -40 111 -59 151 -75 158 -41 19 -58 -4 -119 -162 -53 -137 -60
-150 -79 -144 -136 38 -255 90 -239 104 5 4 162 98 350 209 387 229 336 183
453 406 71 134 179 337 243 454 l40 74 18 -24 c10 -13 33 -58 50 -99z m-908
-332 c-61 -64 -70 -112 -32 -174 21 -34 73 -64 111 -64 30 0 83 33 115 71 14
16 29 29 33 27 5 -2 29 -23 55 -46 l46 -44 -153 -90 c-84 -50 -166 -99 -183
-108 -16 -10 -122 -72 -235 -140 -294 -175 -290 -174 -241 -86 28 50 63 116
156 291 26 50 65 123 86 163 22 39 58 107 80 150 23 42 55 103 72 135 l32 57
50 -50 49 -50 -41 -42z m306 124 c8 -15 -10 -39 -106 -140 -63 -67 -121 -122
-128 -122 -8 0 -17 10 -20 21 -6 17 4 32 43 73 27 28 79 81 114 119 36 37 70
67 76 67 6 0 16 -8 21 -18z m-858 -88 c5 -76 4 -79 -29 -82 -32 -3 -32 -3 -32
41 0 24 2 46 5 49 12 11 55 5 56 -8z m1507 -37 l3 -47 -33 0 c-37 0 -35 -7
-29 87 1 7 13 11 29 10 25 -2 27 -6 30 -50z m-707 -886 c40 -111 56 -167 49
-171 -15 -9 -221 -11 -252 -2 l-25 7 67 171 c37 94 70 179 74 190 9 23 2 40
87 -195z m-363 23 c48 -15 88 -28 89 -29 2 -1 -45 -128 -52 -142 -4 -9 -131
34 -202 67 -80 37 -213 119 -213 130 0 3 32 23 71 46 l71 41 74 -42 c41 -24
114 -55 162 -71z"/>
</g>
</svg>
